<svg xmlns="http://www.w3.org/2000/svg" viewBox="0 0 501.18 563.72"><defs><style>.cls-1{fill:none;}.cls-1,.cls-2{stroke:#4d4d4d;stroke-miterlimit:10;stroke-width:2px;}.cls-2{fill:#4d4d4d;}</style></defs><title>Asset 1</title><g id="Layer_2" data-name="Layer 2"><g id="Layer_1-2" data-name="Layer 1"><path class="cls-1" d="M153.32,563.72v-36.5a8.52,8.52,0,0,0-2.09-5.15l-38.54-39.63a4.13,4.13,0,0,0-4.71-.67l-15.44,8.75"/><circle class="cls-2" cx="87.04" cy="493.56" r="7.82"/><path class="cls-1" d="M153.32,563.72v-36.5a8.52,8.52,0,0,0-2.09-5.15l-38.54-39.63a4.13,4.13,0,0,0-4.71-.67l-15.44,8.75"/><path class="cls-1" d="M175,563.72v-36.5a8.5,8.5,0,0,0-2.1-5.14L99.46,447.53a4.31,4.31,0,0,0-4.76-.75L50.27,470"/><circle class="cls-2" cx="44.76" cy="473.07" r="7.82"/><path class="cls-1" d="M175,563.72v-36.5a8.5,8.5,0,0,0-2.1-5.14L99.46,447.53a4.31,4.31,0,0,0-4.76-.75L50.27,470"/><path class="cls-1" d="M187.62,563.72V527.85a8.41,8.41,0,0,0-2.11-5.13L50.55,386.6a8.38,8.38,0,0,1-2.12-5.13V216.72a8.37,8.37,0,0,1,2.12-5.12L107.19,155"/><circle class="cls-2" cx="112.77" cy="149.37" r="7.82"/><circle class="cls-2" cx="149.11" cy="200.48" r="7.82"/><circle class="cls-2" cx="140.68" cy="327.45" r="7.82"/><circle class="cls-2" cx="101.57" cy="385.82" r="7.82"/><circle class="cls-2" cx="123.23" cy="239.59" r="7.82"/><circle class="cls-2" cx="208.08" cy="418.31" r="7.82"/><circle class="cls-2" cx="236.36" cy="412.78" r="7.82"/><circle class="cls-2" cx="242.23" cy="235.23" r="7.82"/><circle class="cls-2" cx="244.71" cy="203.4" r="7.82"/><circle class="cls-2" cx="329.78" cy="227.41" r="7.82"/><circle class="cls-2" cx="386.65" cy="133.72" r="7.82"/><circle class="cls-2" cx="431.78" cy="149.37" r="7.82"/><circle class="cls-2" cx="431.78" cy="309.25" r="7.82"/><circle class="cls-2" cx="264.13" cy="432.12" r="7.82"/><circle class="cls-2" cx="398.38" cy="402.73" r="7.82"/><circle class="cls-2" cx="208.08" cy="133.72" r="7.82"/><circle class="cls-2" cx="290.52" cy="130.62" r="7.82"/><circle class="cls-2" cx="290.52" cy="378" r="7.82"/><circle class="cls-2" cx="354.33" cy="289.3" r="7.82"/><circle class="cls-2" cx="380.96" cy="192.66" r="7.82"/><circle class="cls-2" cx="406.2" cy="102.09" r="7.82"/><circle class="cls-2" cx="492.36" cy="8.82" r="7.82"/><circle class="cls-2" cx="426.93" cy="208.3" r="7.82"/><circle class="cls-2" cx="488.76" cy="197.47" r="7.82"/><circle class="cls-2" cx="67.27" cy="290.14" r="7.82"/><circle class="cls-1" cx="8.82" cy="277.16" r="7.82"/><circle class="cls-1" cx="79.3" cy="435.76" r="7.82"/><circle class="cls-1" cx="173.78" cy="296.76" r="7.82"/><circle class="cls-1" cx="271.41" cy="168.44" r="7.82"/><circle class="cls-1" cx="307.07" cy="222.14" r="7.82"/><circle class="cls-1" cx="221.32" cy="320.23" r="7.82"/><circle class="cls-1" cx="415.68" cy="535.23" r="7.82"/><path class="cls-1" d="M200.25,563.72v-36.5a8.41,8.41,0,0,0-2.11-5.13L67,389.76a8.46,8.46,0,0,1-2.11-5.14V334.06A8.39,8.39,0,0,1,67,328.94l34-34a8.33,8.33,0,0,0,2.12-5.12V260.66"/><circle class="cls-2" cx="103.37" cy="260.66" r="7.82"/><path class="cls-1" d="M212.89,563.72v-36.5a8.41,8.41,0,0,0-2.11-5.13l-129.85-131A8.41,8.41,0,0,1,78.82,386V337.67a8.39,8.39,0,0,1,2.12-5.12l33-33"/><circle class="cls-2" cx="119.83" cy="294.02" r="7.82"/><path class="cls-1" d="M67.27,282.32V222.74a8.36,8.36,0,0,1,2.12-5.13L147,140c1.17-1.17,2.13-.77,2.13.88v51.76"/><path class="cls-1" d="M128.76,245.13l27.55,27.54a8.36,8.36,0,0,1,2.12,5.13v155a8.42,8.42,0,0,0,2.12,5.13l68.72,68.72a8.32,8.32,0,0,1,2.13,5.12v52"/><path class="cls-1" d="M107.1,391.35l31.46,31.46c1.17,1.17,2.12.77,2.12-.88V335.27"/><path class="cls-1" d="M173.78,304.58V423.14c0,1.65.95,2,2.12.88l43.6-43.6a8.39,8.39,0,0,0,2.12-5.12V328.05"/><path class="cls-1" d="M213.61,412.78l20.63-20.63a8.37,8.37,0,0,0,2.12-5.12V269.82a10.09,10.09,0,0,0-1.86-5.35l-24-30.35a10,10,0,0,1-1.87-5.35V141.54"/><path class="cls-1" d="M415.68,527.41V463.89c0-1.65-.95-2.05-2.12-.88l-48.19,48.18a8.39,8.39,0,0,0-2.12,5.12v47.41"/><path class="cls-1" d="M246,242.57l17.17,17.17a8.31,8.31,0,0,1,2.12,5.12v118a8.33,8.33,0,0,1-2.12,5.12l-22.87,22.87"/><line class="cls-1" x1="290.52" y1="136.15" x2="290.52" y2="378"/><path class="cls-1" d="M241.4,563.72V437.94a8.31,8.31,0,0,1,2.12-5.12l32.24-32.24a8.33,8.33,0,0,0,2.12-5.12V239.59a8.36,8.36,0,0,0-2.12-5.13L250.24,209"/><path class="cls-1" d="M252.55,563.72V468.63a8.43,8.43,0,0,1,2.11-5.13l74-74.52a8.42,8.42,0,0,0,2.12-5.13V276a8.45,8.45,0,0,1,2.1-5.14L366,237.37a8.46,8.46,0,0,0,2.11-5.14V155.28a8.33,8.33,0,0,1,2.12-5.12l10.91-10.91"/><path class="cls-1" d="M263.7,563.72V470.85a8.39,8.39,0,0,1,2.12-5.12l75.8-75.8a8.33,8.33,0,0,0,2.12-5.12V280.16a8.34,8.34,0,0,1,2.13-5.12L379,241.89a8.37,8.37,0,0,0,2.12-5.12V200.48"/><path class="cls-1" d="M274.85,563.72V474.19a8.48,8.48,0,0,1,2.1-5.14l75.7-77a8.5,8.5,0,0,0,2.1-5.14v-99"/><path class="cls-1" d="M297.15,563.72V480.24a8.37,8.37,0,0,1,2.12-5.12l76.63-76.63a8.37,8.37,0,0,0,2.13-5.13V293.14a8.33,8.33,0,0,1,2.12-5.12l33.91-33.92a8.31,8.31,0,0,0,2.12-5.12V166.77a8.34,8.34,0,0,1,2.13-5.12l7.34-7.34"/><path class="cls-1" d="M319.45,563.72V486.29a8.32,8.32,0,0,1,2.13-5.12l75.7-75.7"/><path class="cls-1" d="M330.61,563.72V498.29a8.31,8.31,0,0,1,2.12-5.12l78.65-78.66a8.31,8.31,0,0,0,2.12-5.12v-105a8.39,8.39,0,0,1,2.12-5.12l33.93-33.93a8.31,8.31,0,0,0,2.12-5.12V123.76a8.34,8.34,0,0,1,2.13-5.12L490.24,82.2a8.37,8.37,0,0,0,2.12-5.12V16.8"/><path class="cls-1" d="M341.76,563.72V503.07a8.31,8.31,0,0,1,2.12-5.12L456.13,385.7a8.39,8.39,0,0,0,2.12-5.12V338.27a8.39,8.39,0,0,0-2.12-5.12l-18.6-18.59"/><path class="cls-1" d="M352.91,563.72V507.85a8.31,8.31,0,0,1,2.12-5.12L487,370.8a8.31,8.31,0,0,0,2.12-5.12V205.29"/><path class="cls-1" d="M271.41,160.61v-42a8.39,8.39,0,0,1,2.12-5.12l58.79-58.79c1.17-1.17,2.12-.77,2.12.88v51.32a8.49,8.49,0,0,1-2.09,5.14l-23.19,23.66a8.52,8.52,0,0,0-2.09,5.15v73.45"/><path class="cls-1" d="M269.66,426.59l31.1-31.1a8.32,8.32,0,0,0,2.13-5.12l.26-133.94a8.34,8.34,0,0,1,2.13-5.12L325.57,231"/><path class="cls-1" d="M71.48,428.92,29.79,387.23a8.36,8.36,0,0,1-2.12-5.13v-82a8.87,8.87,0,0,0-2-5.2L14.35,282.69"/><path class="cls-1" d="M406.2,109.92V242.13a8.33,8.33,0,0,1-2.12,5.12l-35.32,35.32a8.33,8.33,0,0,0-2.12,5.12v103a8.32,8.32,0,0,1-2.13,5.12l-76.39,76.33a8.39,8.39,0,0,0-2.12,5.12v86.51"/><path class="cls-1" d="M426.93,208.3v41.53a8.37,8.37,0,0,1-2.12,5.12l-34.54,34.54a8.33,8.33,0,0,0-2.12,5.12V394.85a8.53,8.53,0,0,1-2.1,5.15L310.4,477.31a8.48,8.48,0,0,0-2.1,5.14v81.27"/></g></g></svg>